<svg width="343" height="63" viewBox="0 0 343 63" fill="none" xmlns="http://www.w3.org/2000/svg">
<rect width="343" height="63" rx="8" fill="white"/>
<path fill-rule="evenodd" clip-rule="evenodd" d="M8 31.5V55H10.819H13.6379V31.5V8H10.819H8V31.5ZM16.1045 31.5V55H17.514H18.9235V31.5V8H17.514H16.1045V31.5ZM24.2091 31.5V55H28.0851H31.9612V31.5V8H28.0851H24.2091V31.5ZM37.2468 31.5V55H38.6563H40.0657V31.5V8H38.6563H37.2468V31.5ZM42.5323 31.5V55H46.5846H50.6369V31.5V8H46.5846H42.5323V31.5ZM53.4558 31.5V55H58.7414H64.0269V31.5V8H58.7414H53.4558V31.5ZM66.4935 31.5V55H67.903H69.3125V31.5V8H67.903H66.4935V31.5ZM74.5981 31.5V55H75.8314H77.0647V31.5V8H75.8314H74.5981V31.5ZM87.9882 31.5V55H90.6309H93.2737V31.5V8H90.6309H87.9882V31.5ZM95.7403 31.5V55H98.3831H101.026V31.5V8H98.3831H95.7403V31.5ZM106.311 31.5V55H108.954H111.597V31.5V8H108.954H106.311V31.5ZM114.416 31.5V55H117.059H119.702V31.5V8H117.059H114.416V31.5ZM124.987 31.5V55H127.63H130.273V31.5V8H127.63H124.987V31.5ZM133.092 31.5V55H134.325H135.558V31.5V8H134.325H133.092V31.5ZM143.663 31.5V55H144.896H146.129V31.5V8H144.896H143.663V31.5ZM154.234 31.5V55H156.877H159.519V31.5V8H156.877H154.234V31.5ZM162.338 31.5V55H166.214H170.091V31.5V8H166.214H162.338V31.5ZM172.91 31.5V55H174.143H175.376V31.5V8H174.143H172.91V31.5ZM183.481 31.5V55H187.533H191.585V31.5V8H187.533H183.481V31.5ZM196.871 31.5V55H198.104H199.337V31.5V8H198.104H196.871V31.5ZM204.623 31.5V55H207.266H209.908V31.5V8H207.266H204.623V31.5ZM212.727 31.5V55H213.961H215.194V31.5V8H213.961H212.727V31.5ZM218.013 31.5V55H223.299H228.584V31.5V8H223.299H218.013V31.5ZM236.689 31.5V55H237.922H239.155V31.5V8H237.922H236.689V31.5ZM241.974 31.5V55H245.85H249.726V31.5V8H245.85H241.974V31.5ZM252.545 31.5V55H257.831H263.116V31.5V8H257.831H252.545V31.5ZM265.935 31.5V55H267.169H268.402V31.5V8H267.169H265.935V31.5ZM271.221 31.5V55H275.097H278.973V31.5V8H275.097H271.221V31.5ZM281.792 31.5V55H283.025H284.259V31.5V8H283.025H281.792V31.5ZM287.078 31.5V55H292.363H297.649V31.5V8H292.363H287.078V31.5ZM300.468 31.5V55H303.11H305.753V31.5V8H303.11H300.468V31.5ZM313.505 31.5V55H317.558H321.61V31.5V8H317.558H313.505V31.5ZM324.077 31.5V55H325.486H326.896V31.5V8H325.486H324.077V31.5ZM329.362 31.5V55H332.181H335V31.5V8H332.181H329.362V31.5Z" fill="#2C2F2F"/>
</svg>
