<svg width="16" height="17" viewBox="0 0 16 17" fill="none" xmlns="http://www.w3.org/2000/svg">
<path d="M15.7656 15.1336C15.8399 15.208 15.8988 15.2962 15.9391 15.3933C15.9793 15.4904 16 15.5945 16 15.6996C16 15.8047 15.9793 15.9088 15.9391 16.0059C15.8988 16.103 15.8399 16.1912 15.7656 16.2656C15.6912 16.3399 15.603 16.3988 15.5059 16.4391C15.4088 16.4793 15.3047 16.5 15.1996 16.5C15.0945 16.5 14.9904 16.4793 14.8933 16.4391C14.7962 16.3988 14.708 16.3399 14.6336 16.2656L8 9.63094L1.36637 16.2656C1.21626 16.4157 1.01268 16.5 0.8004 16.5C0.588121 16.5 0.384536 16.4157 0.234432 16.2656C0.0843276 16.1155 4.18453e-09 15.9119 0 15.6996C-4.18453e-09 15.4873 0.0843276 15.2837 0.234432 15.1336L6.86906 8.5L0.234432 1.86637C0.0843276 1.71626 -1.5816e-09 1.51268 0 1.3004C1.5816e-09 1.08812 0.0843276 0.884536 0.234432 0.734432C0.384536 0.584328 0.588121 0.5 0.8004 0.5C1.01268 0.5 1.21626 0.584328 1.36637 0.734432L8 7.36906L14.6336 0.734432C14.7837 0.584328 14.9873 0.5 15.1996 0.5C15.4119 0.5 15.6155 0.584328 15.7656 0.734432C15.9157 0.884536 16 1.08812 16 1.3004C16 1.51268 15.9157 1.71626 15.7656 1.86637L9.13094 8.5L15.7656 15.1336Z" fill="#2C2F2F"/>
</svg>
