<svg width="152" height="28" viewBox="0 0 152 28" fill="none" xmlns="http://www.w3.org/2000/svg">
<g clip-path="url(#clip0_310_204)">
<path d="M18.3851 10.2247L16.1234 11.1518C15.947 10.5939 15.7089 10.0831 15.4091 9.61961C15.1181 9.1561 14.7654 8.76124 14.351 8.43507C13.9453 8.1003 13.4824 7.84279 12.9622 7.66252C12.4419 7.47369 11.8732 7.37927 11.2559 7.37927C10.5946 7.37927 9.98617 7.48657 9.43062 7.70116C8.88394 7.91575 8.39014 8.2076 7.94925 8.57669C7.51717 8.93719 7.13801 9.36209 6.81175 9.85137C6.4855 10.3406 6.21215 10.8642 5.9917 11.4222C5.78007 11.9716 5.61694 12.5424 5.50231 13.1346C5.39649 13.7269 5.34357 14.3063 5.34357 14.8728C5.34357 15.7741 5.4494 16.6711 5.66102 17.5638C5.88148 18.4565 6.22537 19.2591 6.6927 19.9715C7.16886 20.684 7.78171 21.2634 8.53121 21.7097C9.28075 22.1475 10.189 22.3664 11.2559 22.3664C11.8379 22.3664 12.292 22.2419 12.6183 21.993C12.9445 21.7355 13.1076 21.2891 13.1076 20.6539V14.963H18.3587V24.169H16.8376L15.9117 22.714C15.0652 23.3406 14.1305 23.8042 13.1076 24.1046C12.0936 24.3964 11.0575 24.5423 9.99939 24.5423C9.0647 24.5423 8.1653 24.4308 7.30113 24.2076C6.4458 23.9844 5.6478 23.6668 4.9071 23.2548C4.16641 22.8428 3.49184 22.3449 2.88341 21.7612C2.28381 21.1776 1.76797 20.5295 1.3359 19.817C0.912642 19.1046 0.581974 18.3321 0.343896 17.4994C0.114632 16.6582 0 15.7827 0 14.8728C0 13.963 0.114632 13.0917 0.343896 12.2591C0.581974 11.4179 0.912642 10.6411 1.3359 9.92862C1.76797 9.20759 2.28381 8.55525 2.88341 7.97153C3.49184 7.38784 4.16641 6.89 4.9071 6.47798C5.6478 6.06596 6.4458 5.74836 7.30113 5.5252C8.1653 5.30201 9.0647 5.19043 9.99939 5.19043C10.8988 5.19043 11.7762 5.29344 12.6315 5.49944C13.4956 5.70543 14.2981 6.01875 15.0388 6.43934C15.7795 6.85136 16.4364 7.37496 17.0095 8.01017C17.5915 8.63678 18.05 9.37497 18.3851 10.2247Z" fill="#F89BEF"/>
<path d="M26.2717 24.1692H21.0405V6.83447H26.2717V24.1692Z" fill="#F89BEF"/>
<path d="M38.5558 24.1691H33.8648L27.3838 6.81934H32.5994L37.3524 20.6391L41.9664 6.81934H45.5771L38.5558 24.1691Z" fill="#F89BEF"/>
<path d="M50.1523 15.9375C50.7902 16.0778 51.428 16.1879 52.0658 16.268C52.7036 16.3481 53.3466 16.3882 53.9948 16.3882C54.6736 16.3882 55.3014 16.3281 55.8773 16.2079C56.4638 16.0778 56.968 15.8675 57.3896 15.577C57.8217 15.2766 58.1613 14.881 58.4082 14.3903C58.6549 13.8996 58.7785 13.2888 58.7785 12.5577C58.7785 11.9669 58.6962 11.4261 58.5316 10.9354C58.3669 10.4447 58.12 10.0241 57.7908 9.67361C57.4719 9.32311 57.0758 9.05271 56.6026 8.86245C56.1294 8.66217 55.579 8.56201 54.9515 8.56201C54.365 8.56201 53.8353 8.66718 53.3621 8.87746C52.8992 9.08777 52.4877 9.37317 52.1275 9.7337C51.7779 10.0842 51.4745 10.4948 51.2172 10.9654C50.9703 11.4361 50.7646 11.9268 50.6 12.4375C50.4354 12.9483 50.317 13.464 50.245 13.9848C50.173 14.5055 50.1371 14.9962 50.1371 15.4569C50.1371 15.537 50.1371 15.6171 50.1371 15.6972C50.1371 15.7773 50.142 15.8574 50.1523 15.9375ZM63.0067 12.5127C63.0067 13.2237 62.8882 13.8596 62.6516 14.4204C62.415 14.9712 62.0909 15.4569 61.6794 15.8775C61.2782 16.2981 60.8101 16.6536 60.2753 16.944C59.7404 17.2344 59.1694 17.4747 58.5625 17.665C57.9554 17.8453 57.3279 17.9755 56.6797 18.0556C56.0419 18.1357 55.4196 18.1758 54.8127 18.1758C54.041 18.1758 53.2798 18.1257 52.5287 18.0255C51.7779 17.9154 51.0371 17.7451 50.3066 17.5148C50.4199 18.1758 50.6 18.8066 50.847 19.4075C51.0936 19.9984 51.4228 20.5191 51.8344 20.9697C52.2459 21.4104 52.7501 21.7609 53.3466 22.0212C53.9538 22.2816 54.6688 22.4118 55.4916 22.4118C56.0368 22.4118 56.5564 22.3317 57.0503 22.1715C57.5438 22.0112 57.9967 21.7859 58.4082 21.4955C58.8195 21.2051 59.1797 20.8596 59.4883 20.459C59.8072 20.0584 60.0645 19.6128 60.2598 19.1221L62.5128 19.9333C62.1732 20.7244 61.7052 21.4104 61.1087 21.9912C60.5222 22.562 59.8534 23.0377 59.1026 23.4183C58.3618 23.7888 57.5697 24.0642 56.7262 24.2444C55.8928 24.4247 55.0648 24.5148 54.2417 24.5148C52.8838 24.5148 51.6288 24.2945 50.4764 23.8539C49.3244 23.4032 48.3315 22.7773 47.4984 21.9762C46.6649 21.175 46.0116 20.2187 45.5384 19.1071C45.0652 17.9955 44.8286 16.7787 44.8286 15.4569C44.8286 14.135 45.0652 12.9182 45.5384 11.8066C46.0116 10.6951 46.6649 9.73871 47.4984 8.93755C48.3315 8.13641 49.3244 7.51554 50.4764 7.0749C51.6288 6.62424 52.8838 6.39893 54.2417 6.39893C54.9002 6.39893 55.5739 6.44401 56.2633 6.53414C56.9525 6.62424 57.621 6.76945 58.2691 6.96973C58.9173 7.16002 59.5293 7.41037 60.1055 7.72083C60.6816 8.03127 61.1807 8.4168 61.6022 8.87746C62.0344 9.32812 62.374 9.85387 62.6209 10.4547C62.8779 11.0556 63.0067 11.7415 63.0067 12.5127Z" fill="#F89BEF"/>
<path d="M92.5739 14.0449C92.5739 15.2366 92.4299 16.4783 92.142 17.7702C91.8538 19.062 91.4474 20.3238 90.9228 21.5556C90.4086 22.7773 89.786 23.934 89.0558 25.0255C88.3254 26.1171 87.5066 27.1991 86.6115 28.0002L84.6579 26.8281C84.9561 26.3074 85.2289 25.7215 85.4758 25.0706C85.7224 24.4197 85.949 23.7337 86.1546 23.0127C86.3603 22.2916 86.5404 21.5506 86.6947 20.7895C86.849 20.0284 86.9777 19.2723 87.0804 18.5212C87.1937 17.7601 87.276 17.0241 87.3273 16.3131C87.379 15.6021 87.4045 14.9361 87.4045 14.3152C87.4045 13.9647 87.3941 13.5842 87.3738 13.1736C87.3531 12.763 87.307 12.3524 87.2347 11.9419C87.173 11.5313 87.0752 11.1407 86.9416 10.7702C86.808 10.3896 86.6227 10.0542 86.3861 9.76374C86.1598 9.4633 85.8719 9.22796 85.522 9.05772C85.1824 8.87746 84.7709 8.78735 84.2876 8.78735C83.8141 8.78735 83.408 8.91251 83.0685 9.16289C82.7392 9.40321 82.4564 9.71866 82.2196 10.1092C81.983 10.4998 81.7928 10.9404 81.6488 11.4311C81.5149 11.9218 81.4122 12.4175 81.3403 12.9182C81.268 13.4089 81.2166 13.8796 81.1857 14.3303C81.1653 14.7809 81.155 15.1614 81.155 15.4719V24.1693H75.9546V16.0878C75.9546 15.7373 75.9597 15.3167 75.9701 14.826C75.9804 14.3252 75.9649 13.8045 75.9239 13.2637C75.8929 12.723 75.8261 12.1872 75.7231 11.6564C75.6305 11.1157 75.4762 10.635 75.2603 10.2144C75.0546 9.79379 74.7716 9.45331 74.4116 9.19293C74.0514 8.92254 73.5989 8.78735 73.0537 8.78735C72.5908 8.78735 72.1996 8.91251 71.8807 9.16289C71.5721 9.41324 71.31 9.73871 71.0937 10.1393C70.8881 10.5298 70.7235 10.9755 70.6002 11.4762C70.4869 11.9669 70.3994 12.4626 70.3377 12.9633C70.2864 13.454 70.2554 13.9247 70.2451 14.3753C70.2348 14.8159 70.2296 15.1815 70.2296 15.4719V24.1693H64.9985V6.81954H67.0046L68.9181 10.8603C69.35 9.45829 70.0292 8.36674 70.9549 7.58562C71.891 6.79451 73.1308 6.39893 74.6738 6.39893C76.0627 6.39893 77.2147 6.67935 78.1305 7.24013C79.0459 7.80094 79.766 8.71223 80.2909 9.97405C80.5891 9.42326 80.9184 8.92755 81.2783 8.48691C81.6488 8.04628 82.0552 7.67074 82.4975 7.36031C82.95 7.04987 83.449 6.81453 83.9942 6.65429C84.5394 6.48405 85.1414 6.39893 85.7996 6.39893C87.0136 6.39893 88.0475 6.5942 88.9013 6.98477C89.7656 7.36532 90.4703 7.89606 91.0155 8.57705C91.5607 9.25801 91.9567 10.0692 92.2037 11.0105C92.4506 11.9419 92.5739 12.9533 92.5739 14.0449Z" fill="#F89BEF"/>
<path d="M99.0718 15.9375C99.7096 16.0778 100.347 16.1879 100.985 16.268C101.623 16.3481 102.266 16.3882 102.914 16.3882C103.593 16.3882 104.221 16.3281 104.797 16.2079C105.383 16.0778 105.887 15.8675 106.309 15.577C106.741 15.2766 107.08 14.881 107.327 14.3903C107.574 13.8996 107.698 13.2888 107.698 12.5577C107.698 11.9669 107.616 11.4261 107.451 10.9354C107.286 10.4447 107.039 10.0241 106.71 9.67361C106.391 9.32311 105.995 9.05271 105.522 8.86245C105.049 8.66217 104.498 8.56201 103.871 8.56201C103.284 8.56201 102.755 8.66718 102.282 8.87746C101.818 9.08777 101.407 9.37317 101.047 9.7337C100.697 10.0842 100.394 10.4948 100.137 10.9654C99.8897 11.4361 99.6838 11.9268 99.5192 12.4375C99.3545 12.9483 99.2364 13.464 99.1644 13.9848C99.0924 14.5055 99.0563 14.9962 99.0563 15.4569C99.0563 15.537 99.0563 15.6171 99.0563 15.6972C99.0563 15.7773 99.0614 15.8574 99.0718 15.9375ZM111.926 12.5127C111.926 13.2237 111.808 13.8596 111.571 14.4204C111.334 14.9712 111.01 15.4569 110.599 15.8775C110.198 16.2981 109.73 16.6536 109.195 16.944C108.66 17.2344 108.089 17.4747 107.482 17.665C106.875 17.8453 106.247 17.9755 105.599 18.0556C104.961 18.1357 104.339 18.1758 103.732 18.1758C102.96 18.1758 102.199 18.1257 101.448 18.0255C100.697 17.9154 99.9565 17.7451 99.2261 17.5148C99.3393 18.1758 99.5192 18.8066 99.7661 19.4075C100.013 19.9984 100.342 20.5191 100.754 20.9697C101.165 21.4104 101.669 21.7609 102.266 22.0212C102.873 22.2816 103.588 22.4118 104.411 22.4118C104.956 22.4118 105.476 22.3317 105.969 22.1715C106.463 22.0112 106.916 21.7859 107.327 21.4955C107.739 21.2051 108.099 20.8596 108.408 20.459C108.727 20.0584 108.984 19.6128 109.179 19.1221L111.432 19.9333C111.093 20.7244 110.625 21.4104 110.028 21.9912C109.442 22.562 108.773 23.0377 108.022 23.4183C107.281 23.7888 106.489 24.0642 105.645 24.2444C104.812 24.4247 103.984 24.5148 103.161 24.5148C101.803 24.5148 100.548 24.2945 99.3958 23.8539C98.2435 23.4032 97.2509 22.7773 96.4175 21.9762C95.5844 21.175 94.9311 20.2187 94.4579 19.1071C93.9847 17.9955 93.748 16.7787 93.748 15.4569C93.748 14.135 93.9847 12.9182 94.4579 11.8066C94.9311 10.6951 95.5844 9.73871 96.4175 8.93755C97.2509 8.13641 98.2435 7.51554 99.3958 7.0749C100.548 6.62424 101.803 6.39893 103.161 6.39893C103.819 6.39893 104.493 6.44401 105.182 6.53414C105.872 6.62424 106.54 6.76945 107.189 6.96973C107.837 7.16002 108.449 7.41037 109.025 7.72083C109.601 8.03127 110.1 8.4168 110.522 8.87746C110.954 9.32812 111.293 9.85387 111.54 10.4547C111.797 11.0556 111.926 11.7415 111.926 12.5127Z" fill="#F89BEF"/>
<path d="M117.832 21.916C117.832 22.2966 117.76 22.6571 117.616 22.9976C117.472 23.3281 117.271 23.6185 117.014 23.8688C116.757 24.1092 116.458 24.2994 116.119 24.4397C115.779 24.5899 115.414 24.665 115.023 24.665C114.632 24.665 114.267 24.5899 113.928 24.4397C113.588 24.2994 113.29 24.1092 113.032 23.8688C112.776 23.6185 112.575 23.3281 112.431 22.9976C112.287 22.6571 112.215 22.2966 112.215 21.916C112.215 21.5455 112.287 21.195 112.431 20.8645C112.575 20.5241 112.776 20.2336 113.032 19.9933C113.29 19.7429 113.588 19.5477 113.928 19.4074C114.267 19.2573 114.632 19.1821 115.023 19.1821C115.414 19.1821 115.779 19.2573 116.119 19.4074C116.458 19.5477 116.757 19.7429 117.014 19.9933C117.271 20.2336 117.472 20.5241 117.616 20.8645C117.76 21.195 117.832 21.5455 117.832 21.916Z" fill="#F89BEF"/>
<path d="M124.146 24.1691H118.93V0H124.146V16.0124C124.999 15.4116 125.838 14.7506 126.661 14.0296C127.494 13.3086 128.286 12.5525 129.037 11.7614C129.788 10.9602 130.483 10.1441 131.12 9.31286C131.769 8.48168 132.334 7.6505 132.818 6.81932H136.367C135.647 8.001 134.793 9.18268 133.805 10.3644C132.818 11.5361 131.743 12.6577 130.58 13.7292L136.429 24.1691H130.673L126.522 16.9287C125.75 17.4395 124.958 17.9101 124.146 18.3408V24.1691Z" fill="#F89BEF"/>
<path d="M152 24.1691H136.908V22.1562L146.244 8.8322H136.908V6.81934H152V8.8322L142.664 22.1562H152V24.1691Z" fill="#F89BEF"/>
<path d="M23.6599 5.04C24.8954 4.54317 25.7896 3.69502 26.2719 2.83623C26.7468 1.98099 26.8136 1.1293 26.3906 0.618279C26.0085 0.160491 25.5113 -0.0133965 25.0067 0.000798411C24.5021 0.0149934 24.0124 0.224369 23.6599 0.518913C23.3074 0.224369 22.8177 0.0149934 22.3131 0.000798411C21.8085 -0.0133965 21.3113 0.160491 20.9292 0.618279C20.5062 1.1293 20.573 1.98099 21.0553 2.83623C21.5302 3.69502 22.4244 4.54317 23.6599 5.04Z" fill="#F89BEF"/>
</g>
<defs>
<clipPath id="clip0_310_204">
<rect width="152" height="28" fill="white"/>
</clipPath>
</defs>
</svg>
