<svg width="200" height="37" viewBox="0 0 200 37" fill="none" xmlns="http://www.w3.org/2000/svg">
<g clip-path="url(#clip0_426_154)">
<path d="M24.1909 13.5564L21.2149 14.7704C20.9829 14.0398 20.6696 13.371 20.2751 12.764C19.8923 12.157 19.4281 11.6399 18.8829 11.2128C18.3491 10.7744 17.74 10.4372 17.0555 10.2011C16.3709 9.95385 15.6226 9.83021 14.8104 9.83021C13.9403 9.83021 13.1397 9.97072 12.4087 10.2517C11.6894 10.5327 11.0397 10.9149 10.4595 11.3983C9.89102 11.8703 9.39211 12.4268 8.96283 13.0675C8.53355 13.7082 8.17389 14.3939 7.88381 15.1245C7.60536 15.8439 7.39072 16.5914 7.23989 17.367C7.10064 18.1426 7.03102 18.9013 7.03102 19.6432C7.03102 20.8235 7.17026 21.9981 7.44872 23.1671C7.73879 24.3361 8.19128 25.3871 8.80619 26.3201C9.43272 27.253 10.2391 28.0118 11.2253 28.5963C12.2115 29.1696 13.4065 29.4562 14.8104 29.4562C15.5762 29.4562 16.1737 29.2932 16.603 28.9672C17.0323 28.63 17.2469 28.0455 17.2469 27.2137V19.7612H24.1561V31.8167H22.1547L20.9365 29.9114C19.8226 30.732 18.5928 31.339 17.2469 31.7324C15.9126 32.1146 14.5494 32.3057 13.1571 32.3057C11.9272 32.3057 10.7438 32.1595 9.60675 31.8673C8.48132 31.575 7.43132 31.1591 6.45672 30.6196C5.48211 30.08 4.59453 29.4281 3.79396 28.6638C3.00501 27.8994 2.32628 27.0507 1.75776 26.1178C1.20085 25.1848 0.765755 24.1731 0.452494 23.0828C0.150831 21.9812 0 20.8347 0 19.6432C0 18.4517 0.150831 17.3108 0.452494 16.2204C0.765755 15.1189 1.20085 14.1016 1.75776 13.1686C2.32628 12.2244 3.00501 11.3702 3.79396 10.6058C4.59453 9.84143 5.48211 9.1895 6.45672 8.64995C7.43132 8.1104 8.48132 7.69449 9.60675 7.40225C10.7438 7.10998 11.9272 6.96387 13.1571 6.96387C14.3405 6.96387 15.495 7.09876 16.6204 7.36852C17.7574 7.63828 18.8132 8.04858 19.7878 8.59935C20.7625 9.1389 21.6268 9.82456 22.381 10.6564C23.1467 11.4769 23.75 12.4436 24.1909 13.5564Z" fill="#2C2F2F"/>
<path d="M34.5678 31.8165H27.6847V9.11621H34.5678V31.8165Z" fill="#2C2F2F"/>
<path d="M50.7313 31.8166H44.5588L36.0312 9.09668H42.8939L49.1479 27.194L55.2188 9.09668H59.9698L50.7313 31.8166Z" fill="#2C2F2F"/>
<path d="M65.9898 21.0369C66.829 21.2206 67.6683 21.3648 68.5075 21.4697C69.3468 21.5746 70.1928 21.6271 71.0456 21.6271C71.9388 21.6271 72.7649 21.5484 73.5226 21.391C74.2943 21.2206 74.9577 20.9452 75.5124 20.5649C76.0811 20.1714 76.5279 19.6534 76.8528 19.0109C77.1773 18.3683 77.34 17.5683 77.34 16.611C77.34 15.8373 77.2317 15.1291 77.0151 14.4865C76.7984 13.8439 76.4735 13.2932 76.0403 12.8342C75.6207 12.3752 75.0996 12.0211 74.4769 11.7719C73.8543 11.5097 73.1301 11.3785 72.3045 11.3785C71.5328 11.3785 70.8358 11.5162 70.2132 11.7916C69.6041 12.067 69.0626 12.4407 68.5886 12.9129C68.1286 13.3719 67.7294 13.9095 67.3909 14.5259C67.066 15.1422 66.7954 15.7848 66.5788 16.4536C66.3622 17.1225 66.2064 17.7978 66.1117 18.4797C66.0169 19.1617 65.9698 19.8043 65.9698 20.4075C65.9698 20.5124 65.9698 20.6173 65.9698 20.7222C65.9698 20.8271 65.9762 20.932 65.9898 21.0369ZM82.9034 16.552C82.9034 17.4831 82.7475 18.3158 82.4362 19.0502C82.1249 19.7715 81.6984 20.4075 81.1569 20.9583C80.629 21.5091 80.0132 21.9746 79.3094 22.3549C78.6056 22.7352 77.8543 23.0499 77.0558 23.2991C76.2569 23.5352 75.4313 23.7057 74.5784 23.8106C73.7392 23.9155 72.9203 23.9679 72.1218 23.9679C71.1064 23.9679 70.1049 23.9024 69.1166 23.7712C68.1286 23.627 67.1539 23.404 66.1928 23.1024C66.3418 23.9679 66.5788 24.7941 66.9037 25.5809C67.2283 26.3547 67.6615 27.0366 68.203 27.6267C68.7445 28.2037 69.4079 28.6627 70.1928 29.0037C70.9917 29.3447 71.9324 29.5152 73.0151 29.5152C73.7324 29.5152 74.4162 29.4102 75.066 29.2004C75.7154 28.9906 76.3113 28.6955 76.8528 28.3152C77.3939 27.9349 77.8679 27.4825 78.2739 26.9579C78.6935 26.4334 79.032 25.8498 79.289 25.2072L82.2535 26.2694C81.8068 27.3054 81.1909 28.2037 80.406 28.9644C79.6343 29.7118 78.7543 30.3348 77.7664 30.8331C76.7917 31.3183 75.7494 31.6789 74.6396 31.915C73.543 32.1511 72.4535 32.2691 71.3705 32.2691C69.5837 32.2691 67.9324 31.9806 66.4162 31.4036C64.9003 30.8134 63.5939 29.9938 62.4977 28.9447C61.4011 27.8956 60.5415 26.6432 59.9188 25.1875C59.2962 23.7319 58.9849 22.1385 58.9849 20.4075C58.9849 18.6765 59.2962 17.0831 59.9188 15.6274C60.5415 14.1718 61.4011 12.9194 62.4977 11.8703C63.5939 10.8212 64.9003 10.0081 66.4162 9.43111C67.9324 8.84096 69.5837 8.5459 71.3705 8.5459C72.2369 8.5459 73.1234 8.60493 74.0305 8.72296C74.9373 8.84095 75.8169 9.03111 76.6698 9.29338C77.5226 9.54257 78.3279 9.87041 79.086 10.277C79.8441 10.6835 80.5007 11.1884 81.0554 11.7916C81.6241 12.3817 82.0709 13.0702 82.3958 13.8571C82.7339 14.6439 82.9034 15.5422 82.9034 16.552Z" fill="#2C2F2F"/>
<path d="M121.808 18.5584C121.808 20.119 121.618 21.7451 121.239 23.4368C120.86 25.1285 120.325 26.7809 119.635 28.3939C118.958 29.9938 118.139 31.5085 117.179 32.9379C116.217 34.3673 115.14 35.7842 113.962 36.8333L111.392 35.2984C111.784 34.6165 112.143 33.8493 112.468 32.9969C112.792 32.1445 113.091 31.2462 113.361 30.302C113.632 29.3578 113.869 28.3873 114.072 27.3907C114.275 26.394 114.444 25.4039 114.579 24.4204C114.728 23.4237 114.837 22.4598 114.904 21.5287C114.972 20.5976 115.006 19.7256 115.006 18.9125C115.006 18.4535 114.992 17.9552 114.965 17.4175C114.938 16.8798 114.877 16.3421 114.782 15.8045C114.701 15.2668 114.572 14.7554 114.397 14.2702C114.221 13.7718 113.977 13.3325 113.666 12.9522C113.368 12.5588 112.989 12.2506 112.529 12.0277C112.082 11.7916 111.54 11.6736 110.905 11.6736C110.282 11.6736 109.747 11.8375 109.3 12.1654C108.867 12.4801 108.495 12.8932 108.183 13.4046C107.872 13.9161 107.622 14.4931 107.432 15.1357C107.256 15.7783 107.121 16.4274 107.026 17.0831C106.931 17.7257 106.864 18.3421 106.823 18.9322C106.796 19.5223 106.783 20.0206 106.783 20.4272V31.8167H99.94V21.2337C99.94 20.7747 99.9468 20.2239 99.9604 19.5813C99.974 18.9256 99.9536 18.2437 99.8996 17.5355C99.8589 16.8274 99.771 16.1258 99.6355 15.4307C99.5136 14.7226 99.3106 14.0931 99.0264 13.5423C98.7559 12.9915 98.3834 12.5457 97.9098 12.2047C97.4359 11.8506 96.8404 11.6736 96.123 11.6736C95.514 11.6736 94.9993 11.8375 94.5796 12.1654C94.1736 12.4932 93.8287 12.9194 93.5442 13.444C93.2736 13.9554 93.057 14.539 92.8947 15.1947C92.7457 15.8373 92.6306 16.4864 92.5494 17.1421C92.4819 17.7847 92.4411 18.4011 92.4276 18.9912C92.414 19.5682 92.4072 20.0469 92.4072 20.4272V31.8167H85.5242V9.0967H88.1638L90.6815 14.3882C91.2498 12.5522 92.1434 11.1228 93.3615 10.0999C94.5932 9.06392 96.2245 8.5459 98.2547 8.5459C100.082 8.5459 101.598 8.91311 102.803 9.64747C104.008 10.3819 104.955 11.5752 105.646 13.2276C106.038 12.5063 106.471 11.8572 106.945 11.2802C107.432 10.7031 107.967 10.2114 108.549 9.80485C109.145 9.39832 109.801 9.09014 110.519 8.8803C111.236 8.65736 112.028 8.5459 112.894 8.5459C114.491 8.5459 115.852 8.80161 116.975 9.31307C118.112 9.81141 119.04 10.5064 119.757 11.3982C120.474 12.2899 120.995 13.3522 121.32 14.5849C121.645 15.8045 121.808 17.129 121.808 18.5584Z" fill="#2C2F2F"/>
<path d="M130.357 21.0369C131.197 21.2206 132.036 21.3648 132.875 21.4697C133.714 21.5746 134.56 21.6271 135.413 21.6271C136.306 21.6271 137.132 21.5484 137.89 21.391C138.662 21.2206 139.325 20.9452 139.88 20.5649C140.449 20.1714 140.895 19.6534 141.22 19.0109C141.545 18.3683 141.707 17.5683 141.707 16.611C141.707 15.8373 141.599 15.1291 141.383 14.4865C141.166 13.8439 140.841 13.2932 140.408 12.8342C139.988 12.3752 139.467 12.0211 138.844 11.7719C138.222 11.5097 137.498 11.3785 136.672 11.3785C135.9 11.3785 135.203 11.5162 134.581 11.7916C133.971 12.067 133.43 12.4407 132.956 12.9129C132.496 13.3719 132.097 13.9095 131.758 14.5259C131.434 15.1422 131.163 15.7848 130.946 16.4536C130.729 17.1225 130.574 17.7978 130.479 18.4797C130.384 19.1617 130.337 19.8043 130.337 20.4075C130.337 20.5124 130.337 20.6173 130.337 20.7222C130.337 20.8271 130.344 20.932 130.357 21.0369ZM147.271 16.552C147.271 17.4831 147.115 18.3158 146.804 19.0502C146.492 19.7715 146.066 20.4075 145.524 20.9583C144.997 21.5091 144.381 21.9746 143.677 22.3549C142.973 22.7352 142.222 23.0499 141.423 23.2991C140.624 23.5352 139.799 23.7057 138.946 23.8106C138.107 23.9155 137.288 23.9679 136.489 23.9679C135.474 23.9679 134.472 23.9024 133.484 23.7712C132.496 23.627 131.521 23.404 130.56 23.1024C130.709 23.9679 130.946 24.7941 131.271 25.5809C131.596 26.3547 132.029 27.0366 132.571 27.6267C133.112 28.2037 133.775 28.6627 134.56 29.0037C135.359 29.3447 136.3 29.5152 137.383 29.5152C138.1 29.5152 138.783 29.4102 139.433 29.2004C140.083 28.9906 140.678 28.6955 141.22 28.3152C141.761 27.9349 142.235 27.4825 142.641 26.9579C143.061 26.4334 143.399 25.8498 143.657 25.2072L146.621 26.2694C146.174 27.3054 145.558 28.2037 144.773 28.9644C144.002 29.7118 143.122 30.3348 142.134 30.8331C141.159 31.3183 140.117 31.6789 139.007 31.915C137.911 32.1511 136.821 32.2691 135.738 32.2691C133.951 32.2691 132.3 31.9806 130.784 31.4036C129.268 30.8134 127.961 29.9938 126.865 28.9447C125.769 27.8956 124.909 26.6432 124.286 25.1875C123.664 23.7319 123.352 22.1385 123.352 20.4075C123.352 18.6765 123.664 17.0831 124.286 15.6274C124.909 14.1718 125.769 12.9194 126.865 11.8703C127.961 10.8212 129.268 10.0081 130.784 9.43111C132.3 8.84096 133.951 8.5459 135.738 8.5459C136.604 8.5459 137.491 8.60493 138.398 8.72296C139.304 8.84095 140.184 9.03111 141.037 9.29338C141.89 9.54257 142.695 9.87041 143.454 10.277C144.212 10.6835 144.868 11.1884 145.423 11.7916C145.992 12.3817 146.438 13.0702 146.763 13.8571C147.101 14.6439 147.271 15.5422 147.271 16.552Z" fill="#2C2F2F"/>
<path d="M155.042 28.8658C155.042 29.3641 154.947 29.8362 154.758 30.2821C154.568 30.7148 154.304 31.0951 153.966 31.423C153.628 31.7377 153.235 31.9869 152.788 32.1705C152.342 32.3672 151.861 32.4656 151.346 32.4656C150.832 32.4656 150.352 32.3672 149.905 32.1705C149.458 31.9869 149.066 31.7377 148.727 31.423C148.389 31.0951 148.125 30.7148 147.936 30.2821C147.746 29.8362 147.651 29.3641 147.651 28.8658C147.651 28.3806 147.746 27.9216 147.936 27.4888C148.125 27.0429 148.389 26.6626 148.727 26.3479C149.066 26.02 149.458 25.7643 149.905 25.5807C150.352 25.384 150.832 25.2856 151.346 25.2856C151.861 25.2856 152.342 25.384 152.788 25.5807C153.235 25.7643 153.628 26.02 153.966 26.3479C154.304 26.6626 154.568 27.0429 154.758 27.4888C154.947 27.9216 155.042 28.3806 155.042 28.8658Z" fill="#2C2F2F"/>
<path d="M163.349 31.8165H156.486V0.166504H163.349V21.1352C164.473 20.3484 165.576 19.4828 166.659 18.5386C167.756 17.5944 168.798 16.6043 169.786 15.5683C170.774 14.5192 171.688 13.4504 172.527 12.3619C173.38 11.2735 174.124 10.185 174.76 9.09656H179.43C178.483 10.644 177.359 12.1914 176.06 13.7389C174.76 15.2732 173.346 16.742 171.816 18.1452L179.511 31.8165H171.938L166.476 22.3351C165.461 23.0039 164.419 23.6203 163.349 24.1842V31.8165Z" fill="#2C2F2F"/>
<path d="M200 31.8166H180.143V29.1807L192.426 11.7326H180.143V9.09668H200V11.7326L187.716 29.1807H200V31.8166Z" fill="#2C2F2F"/>
<path d="M31.1316 6.7665C32.7573 6.11589 33.9338 5.00522 34.5685 3.88062C35.1933 2.76066 35.2812 1.64534 34.7247 0.976155C34.2219 0.376671 33.5677 0.148961 32.9038 0.167549C32.2398 0.186138 31.5954 0.46032 31.1316 0.846033C30.6678 0.46032 30.0234 0.186138 29.3595 0.167549C28.6956 0.148961 28.0414 0.376671 27.5385 0.976155C26.982 1.64534 27.0699 2.76066 27.7045 3.88062C28.3294 5.00522 29.5059 6.11589 31.1316 6.7665Z" fill="#2C2F2F"/>
</g>
<defs>
<clipPath id="clip0_426_154">
<rect width="200" height="36.6667" fill="white" transform="translate(0 0.166504)"/>
</clipPath>
</defs>
</svg>
