<svg width="64" height="65" viewBox="0 0 64 65" fill="none" xmlns="http://www.w3.org/2000/svg">
<path fill-rule="evenodd" clip-rule="evenodd" d="M32 64.5C49.6736 64.5 64 50.1736 64 32.5C64 14.8264 49.6736 0.5 32 0.5C14.3264 0.5 0 14.8264 0 32.5C0 50.1736 14.3264 64.5 32 64.5ZM49.1872 22.372C49.3369 22.2178 49.454 22.035 49.5315 21.8345C49.609 21.634 49.6453 21.42 49.6383 21.2052C49.6313 20.9904 49.581 20.7792 49.4906 20.5842C49.4001 20.3892 49.2713 20.2145 49.1118 20.0704C48.9524 19.9263 48.7655 19.8158 48.5624 19.7455C48.3593 19.6752 48.1441 19.6466 47.9296 19.6613C47.7152 19.676 47.506 19.7338 47.3143 19.8311C47.1227 19.9285 46.9527 20.0635 46.8144 20.228L27.648 41.4072L17.104 31.3416C16.7972 31.0484 16.3865 30.889 15.9622 30.8986C15.5379 30.9082 15.1348 31.086 14.8416 31.3928C14.5484 31.6996 14.389 32.1103 14.3986 32.5346C14.4082 32.9589 14.586 33.362 14.8928 33.6552L26.6272 44.8552L27.816 45.9912L28.9184 44.772L49.1872 22.372Z" fill="#06AA16"/>
</svg>
