<svg width="64" height="54" viewBox="0 0 64 54" fill="none" xmlns="http://www.w3.org/2000/svg">
<path d="M63.9973 47.2512C63.9973 50.9788 60.4162 54 55.9977 54H40.5876C37.0518 54 33.6599 52.8145 31.1587 50.7043L24.8576 45.3863C22.8577 43.6991 20.1432 42.7497 17.3139 42.7497H0V13.9525C0 8.56699 4.52515 3.93731 10.7916 2.90924L15.9993 2.05664V22.5055C15.9993 23.7473 17.194 24.7551 18.6659 24.7551C20.1378 24.7551 21.3324 23.7473 21.3324 22.5055V1.18379L27.6149 0.153474C29.9401 -0.282949 32.5186 0.223212 34.4386 1.52123C36.3052 2.78326 37.3318 4.64368 37.3318 6.75606V24.8766C37.3318 26.5818 38.4731 28.1386 40.281 28.9012L55.155 35.1753C60.5761 37.4609 64 42.1356 64 47.2489L63.9973 47.2512ZM17.3139 47.2512H0V49.5008C0 51.9866 2.38657 54 5.33311 54H18.6659C21.0631 54 23.071 52.6502 23.7403 50.8101L21.0845 48.5695C20.0845 47.7259 18.7299 47.2512 17.3139 47.2512Z" fill="white"/>
</svg>
