<svg width="54" height="54" viewBox="0 0 54 54" fill="none" xmlns="http://www.w3.org/2000/svg">
<path d="M13.8857 11.675C13.6337 12.62 13.4987 13.6078 13.4987 14.6248C13.4987 21.4603 19.5418 26.9999 26.9977 26.9999C34.4537 26.9999 40.4967 21.4603 40.4967 14.6248C40.4967 13.5875 40.3572 12.5818 40.094 11.6188C40.4202 11.4613 40.7622 11.1845 41.1357 10.7615C43.498 8.07274 43.2348 3.97772 40.5462 1.61296C37.8577 -0.749554 33.763 -0.486303 31.3984 2.20246C31.2162 2.40946 31.0677 2.60521 30.9484 2.78972C29.6975 2.43871 28.3724 2.24971 26.9977 2.24971C25.6118 2.24971 24.2754 2.44096 23.0178 2.79647C22.867 2.51971 22.6376 2.22046 22.3136 1.89871C19.7825 -0.632553 15.6788 -0.632553 13.1478 1.89871C10.6167 4.42997 10.6167 8.534 13.1478 11.0653C13.411 11.3285 13.654 11.5288 13.8857 11.675ZM26.9977 15.7498C28.8606 15.7498 30.3725 16.7578 30.3725 17.9998C30.3725 19.2418 28.8606 20.2498 26.9977 20.2498C25.1349 20.2498 23.623 19.2418 23.623 17.9998C23.623 16.7578 25.1349 15.7498 26.9977 15.7498ZM14.3334 43.3934C14.3334 43.3934 17.8679 48.1072 17.8679 54H14.3537C9.9035 54 5.71206 51.903 3.0415 48.3435L1.29788 46.0192C-0.551479 43.5532 -0.461486 39.9757 1.80635 37.8922C4.41615 35.4936 8.4501 35.9166 10.5244 38.6819L14.3334 43.3957V43.3934ZM52.6998 46.0147L50.954 48.3435C48.2834 51.9052 44.092 54 39.6418 54H36.0803C36.0803 45.7492 39.5248 42.9817 39.5248 42.9817L43.4733 38.6797C45.5476 35.9144 49.5838 35.4936 52.1936 37.8922C54.4614 39.9757 54.5492 43.5509 52.7021 46.0125L52.6998 46.0147ZM31.5784 54H22.3698C22.3698 46.8135 18.3876 41.2964 17.8342 40.5652L14.1264 35.9774C12.3671 33.6329 9.68301 32.1344 6.76498 31.8644C6.42975 31.8329 6.09678 31.8216 5.7638 31.8239L1.18314 25.1796C-0.769713 22.5763 -0.241002 18.8818 2.36205 16.9288C4.40715 15.3943 7.12495 15.392 9.14305 16.724C10.2477 25.0423 17.8364 31.4999 27.0022 31.4999C36.168 31.4999 43.7567 25.0423 44.8614 16.724C46.8795 15.392 49.5973 15.3965 51.6424 16.9288C54.2455 18.8818 54.7742 22.5763 52.8213 25.1796L48.2407 31.8239C47.9077 31.8239 47.5725 31.8374 47.2395 31.8689C44.4047 32.1276 41.7904 33.5496 40.031 35.7771L36.3615 39.7777C35.0499 41.0017 31.5829 45.0765 31.5829 54H31.5784Z" fill="#2C2F2F"/>
</svg>
