<svg width="64" height="64" viewBox="0 0 64 64" fill="none" xmlns="http://www.w3.org/2000/svg">
<path fill-rule="evenodd" clip-rule="evenodd" d="M64 32C64 49.6736 49.6736 64 32 64C14.3264 64 0 49.6736 0 32C0 14.3264 14.3264 0 32 0C49.6736 0 64 14.3264 64 32ZM19.5552 44.4448C19.2552 44.1448 19.0867 43.7379 19.0867 43.3136C19.0867 42.8893 19.2552 42.4824 19.5552 42.1824L29.7376 32L19.5552 21.8176C19.2637 21.5158 19.1025 21.1117 19.1061 20.6922C19.1098 20.2726 19.278 19.8713 19.5747 19.5747C19.8713 19.278 20.2726 19.1098 20.6922 19.1061C21.1117 19.1025 21.5158 19.2637 21.8176 19.5552L32 29.7376L42.1824 19.5552C42.4842 19.2637 42.8883 19.1025 43.3078 19.1061C43.7274 19.1098 44.1287 19.278 44.4253 19.5747C44.722 19.8713 44.8902 20.2726 44.8939 20.6922C44.8975 21.1117 44.7363 21.5158 44.4448 21.8176L34.2624 32L44.4448 42.1824C44.7363 42.4842 44.8975 42.8883 44.8939 43.3078C44.8902 43.7274 44.722 44.1287 44.4253 44.4253C44.1287 44.722 43.7274 44.8902 43.3078 44.8939C42.8883 44.8975 42.4842 44.7363 42.1824 44.4448L32 34.2624L21.8176 44.4448C21.5176 44.7448 21.1107 44.9133 20.6864 44.9133C20.2621 44.9133 19.8552 44.7448 19.5552 44.4448Z" fill="#FE5E5E"/>
</svg>
